<svg width="200" height="60" viewBox="0 0 200 60" fill="none" xmlns="http://www.w3.org/2000/svg">
<g clip-path="url(#clip0_2_632)">
<path d="M35.3583 12.0643C35.3583 10.48 35.0482 8.91116 34.4457 7.44746C33.8431 5.98376 32.96 4.6538 31.8467 3.53354C30.7334 2.41326 29.4117 1.52463 27.9571 0.918336C26.5025 0.312051 24.9435 -6.925e-08 23.3689 0C21.7945 6.925e-08 20.2355 0.312051 18.7809 0.918336C17.3263 1.52463 16.0046 2.41326 14.8913 3.53354C13.778 4.6538 12.8948 5.98376 12.2923 7.44746C11.6898 8.91116 11.3797 10.48 11.3797 12.0643H16.1666C16.1666 11.1125 16.3529 10.1701 16.7149 9.2908C17.0769 8.4115 17.6073 7.61256 18.2761 6.93958C18.945 6.2666 19.7389 5.73276 20.6128 5.36855C21.4866 5.00433 22.4232 4.81688 23.3689 4.81688C24.3148 4.81688 25.2514 5.00433 26.1252 5.36854C26.999 5.73276 27.793 6.2666 28.4619 6.93958C29.1307 7.61256 29.6611 8.4115 30.0231 9.2908C30.3851 10.1701 30.5713 11.1125 30.5713 12.0643H35.3583Z" fill="#121212"/>
<path d="M39.4225 11.4512H7.72193C3.45722 11.4512 0 14.93 0 19.2214V51.1201C0 55.4115 3.45722 58.8903 7.72193 58.8903H39.4225C43.6872 58.8903 47.1445 55.4115 47.1445 51.1201V19.2214C47.1445 14.93 43.6872 11.4512 39.4225 11.4512Z" fill="#FF5634"/>
<path d="M39.2193 34.9658C39.2193 37.0334 38.8145 39.0809 38.0282 40.9912C37.2419 42.9014 36.0893 44.6371 34.6364 46.0992C33.1834 47.5612 31.4585 48.7209 29.5601 49.5122C27.6617 50.3034 25.627 50.7107 23.5722 50.7107C21.5174 50.7107 19.4827 50.3034 17.5843 49.5122C15.686 48.7209 13.961 47.5612 12.5081 46.0992C11.0551 44.6371 9.90254 42.9014 9.1162 40.9912C8.32985 39.0809 7.92513 37.0334 7.92513 34.9658H14.1725C14.1725 36.2079 14.4157 37.4379 14.8881 38.5854C15.3604 39.7329 16.0528 40.7757 16.9256 41.6539C17.7985 42.5323 18.8347 43.2289 19.9752 43.7043C21.1155 44.1797 22.3378 44.4243 23.5722 44.4243C24.8066 44.4243 26.0289 44.1797 27.1693 43.7043C28.3097 43.2289 29.346 42.5323 30.2188 41.6539C31.0917 40.7757 31.784 39.7329 32.2564 38.5854C32.7288 37.4379 32.9719 36.2079 32.9719 34.9658H39.2193Z" fill="white"/>
<path d="M59.4848 42.6376H67.3393C74.7147 42.6376 79.9509 38.0432 79.9509 31.5854C79.9509 25.1277 74.7147 20.5655 67.3393 20.5655H59.4848V42.6376ZM64.1783 38.3323V24.8707H67.9458C72.1285 24.8707 75.0979 27.6658 75.0979 31.5854C75.0979 35.5372 72.1285 38.3323 67.9458 38.3323H64.1783ZM91.2455 38.8785C89.2978 38.8785 87.861 37.6577 87.3183 35.8584H99.2276C99.2276 29.5935 96.1943 25.6418 91.0219 25.6418C86.2007 25.6418 82.5289 29.2722 82.5289 34.2842C82.5289 39.3925 86.3604 43.023 91.2774 43.023C93.7039 43.023 96.5456 41.9949 98.0143 40.4528L95.0448 37.4007C94.1509 38.268 92.5545 38.8785 91.2455 38.8785ZM91.2135 29.7863C93.0973 29.7863 94.3106 30.8465 94.7575 32.485H87.3821C87.9887 30.8144 89.4574 29.7863 91.2135 29.7863ZM102.381 42.6376H107.043V20.1799H102.381V42.6376ZM113.442 23.7462C114.815 23.7462 115.933 22.5895 115.933 21.1759C115.933 19.8587 114.815 18.6699 113.442 18.6699C112.006 18.6699 110.888 19.8587 110.888 21.1759C110.888 22.5895 112.006 23.7462 113.442 23.7462ZM111.08 42.6376H115.741V26.0273H111.08V42.6376ZM125.334 42.6376H129.645L136.701 26.0273H131.848L127.506 37.2399L123.068 26.0273H118.183L125.334 42.6376ZM145.935 38.8785C143.988 38.8785 142.552 37.6577 142.009 35.8584H153.918C153.918 29.5935 150.884 25.6418 145.712 25.6418C140.891 25.6418 137.219 29.2722 137.219 34.2842C137.219 39.3925 141.051 43.023 145.968 43.023C148.394 43.023 151.236 41.9949 152.704 40.4528L149.735 37.4007C148.841 38.268 147.245 38.8785 145.935 38.8785ZM145.903 29.7863C147.788 29.7863 149 30.8465 149.447 32.485H142.072C142.678 30.8144 144.148 29.7863 145.903 29.7863ZM161.733 29.1115V26.0273H157.071V42.6376H161.733V34.7018C161.733 31.5854 163.935 29.5935 167.384 29.5935V25.6418C164.862 25.6418 162.819 26.959 161.733 29.1115ZM199.106 20.5655H193.614L188.345 27.7943L183.078 20.5655H177.522L185.537 31.6497L177.522 42.6376H182.981L188.282 35.4087L193.518 42.6376H199.106L191.06 31.5533L199.106 20.5655Z" fill="#121212"/>
</g>
<defs>
<clipPath id="clip0_2_632">
<rect width="200" height="60" fill="white"/>
</clipPath>
</defs>
</svg>
